<svg width="52" height="51" viewBox="0 0 52 51" fill="none" xmlns="http://www.w3.org/2000/svg">
<g clip-path="url(#clip0_5_169)">
<path d="M44.3018 43.4605H36.6015V31.6264C36.6015 28.8044 36.543 25.1727 32.5888 25.1727C28.574 25.1727 27.9608 28.2434 27.9608 31.4181V43.4605H20.2605V19.125H27.6575V22.4421H27.7572C28.7907 20.5296 31.304 18.5109 35.0588 18.5109C42.861 18.5109 44.304 23.5471 44.304 30.1028L44.3018 43.4605ZM11.5635 15.7951C9.08483 15.7951 7.09367 13.8274 7.09367 11.407C7.09367 8.98875 9.087 7.02313 11.5635 7.02313C14.0335 7.02313 16.0355 8.98875 16.0355 11.407C16.0355 13.8274 14.0313 15.7951 11.5635 15.7951ZM15.4245 43.4605H7.7025V19.125H15.4245V43.4605ZM48.1542 0H3.83717C1.716 0 0 1.64475 0 3.67412V47.3259C0 49.3574 1.716 51 3.83717 51H48.1477C50.2667 51 52 49.3574 52 47.3259V3.67412C52 1.64475 50.2667 0 48.1477 0H48.1542Z" fill="white"/>
</g>
<defs>
<clipPath id="clip0_5_169">
<rect width="52" height="51" fill="white"/>
</clipPath>
</defs>
</svg>
