<svg width="52" height="51" viewBox="0 0 52 51" fill="none" xmlns="http://www.w3.org/2000/svg">
<path d="M52 11.5961V41.1528C52 43.0738 50.414 44.6293 48.4553 44.6293H40.1808V24.9263L26 35.36L11.8192 24.9263V44.6314H3.54467C3.07899 44.6314 2.61788 44.5414 2.18768 44.3665C1.75748 44.1917 1.36662 43.9354 1.03744 43.6124C0.708262 43.2893 0.447209 42.9058 0.2692 42.4838C0.0911915 42.0618 -0.00028398 41.6095 6.62245e-07 41.1528V11.5961C6.62245e-07 9.71125 1.586 8.11963 3.54467 8.11963H5.11983L26 22.2169L46.8802 8.11963H48.4553C50.414 8.11963 52 9.71125 52 11.5961Z" fill="white"/>
</svg>
