<svg width="52" height="51" viewBox="0 0 52 51" fill="none" xmlns="http://www.w3.org/2000/svg">
<path d="M26 0C11.6437 0 0 11.4176 0 25.5C0 36.7668 7.449 46.325 17.7818 49.6974C19.0797 49.9332 19.5 49.1427 19.5 48.4712V43.724C12.2677 45.2668 10.7618 40.715 10.7618 40.715C9.57883 37.7676 7.87367 36.9835 7.87367 36.9835C5.51417 35.4004 8.0535 35.4344 8.0535 35.4344C10.6643 35.6129 12.038 38.063 12.038 38.063C14.3563 41.9603 18.1198 40.834 19.604 40.1816C19.8358 38.5348 20.5097 37.4085 21.255 36.7731C15.4808 36.125 9.40983 33.9384 9.40983 24.1697C9.40983 21.3839 10.426 19.1101 12.0878 17.3251C11.8192 16.6812 10.9287 14.0866 12.3413 10.5761C12.3413 10.5761 14.5253 9.89187 19.4935 13.1899C21.567 12.6246 23.79 12.342 26 12.3314C28.21 12.342 30.4352 12.6246 32.513 13.1899C37.4768 9.89187 39.6565 10.5761 39.6565 10.5761C41.0713 14.0888 40.1808 16.6834 39.9122 17.3251C41.5805 19.1101 42.588 21.386 42.588 24.1697C42.588 33.9639 36.5062 36.1208 30.7168 36.7519C31.6485 37.5424 32.5 39.0936 32.5 41.4736V48.4712C32.5 49.1491 32.916 49.946 34.2355 49.6952C44.5597 46.3186 52 36.7625 52 25.5C52 11.4176 40.3585 0 26 0Z" fill="white"/>
</svg>
